<?xml version="1.0" encoding="UTF-8"?>
<svg version="1.1" xmlns="http://www.w3.org/2000/svg" width="500" height="500">
<path d="M0 0 C1.17070282 -0.00953239 2.34140563 -0.01906477 3.5475843 -0.02888602 C5.49374463 -0.02935611 5.49374463 -0.02935611 7.47922134 -0.0298357 C8.86260885 -0.03714674 10.24599208 -0.04531012 11.62936997 -0.05425674 C15.44419766 -0.0762814 19.25896855 -0.08561511 23.0738492 -0.0928272 C27.18306394 -0.10267316 31.29222323 -0.12386359 35.40140152 -0.14333057 C45.33169175 -0.18765164 55.26199405 -0.21231655 65.19235551 -0.23411843 C68.92969064 -0.24256799 72.66702244 -0.25216476 76.40435474 -0.2617734 C92.8707202 -0.30394754 109.3370882 -0.33989294 125.80349731 -0.35933685 C129.8353997 -0.36417665 133.86730203 -0.36905862 137.89920425 -0.37402821 C138.90134595 -0.375258 139.90348765 -0.37648779 140.93599728 -0.37775484 C157.17590684 -0.39871596 173.41545397 -0.45728451 189.65519902 -0.53141072 C206.31845887 -0.60684966 222.98153363 -0.64847526 239.64496446 -0.65690166 C249.00493098 -0.66248623 258.36434838 -0.68305772 267.7241478 -0.74146557 C275.69437392 -0.79110521 283.66392929 -0.81025549 291.63429567 -0.78930333 C295.70231901 -0.77955225 299.76894624 -0.78446693 303.83677292 -0.82853031 C307.56085074 -0.86852885 311.28251747 -0.86702915 315.00662807 -0.83242915 C316.99249682 -0.82477105 318.97838319 -0.86152636 320.96389747 -0.89982051 C329.42441869 -0.76262779 329.42441869 -0.76262779 332.61748457 2.24171007 C334.16571967 4.52828936 335.37384604 6.76488284 336.52322769 9.27123547 C337.13657974 10.26961437 337.74993179 11.26799328 338.38187027 12.29662609 C338.88871353 13.16480968 339.39555679 14.03299328 339.91775894 14.92748547 C340.76177261 16.36607922 340.76177261 16.36607922 341.62283707 17.83373547 C342.18809097 18.80311047 342.75334488 19.77248547 343.33572769 20.77123547 C344.48673589 22.74076658 345.63900877 24.70955934 346.79275894 26.67748547 C347.29396255 27.53664562 347.79516617 28.39580578 348.31155777 29.28100109 C349.37119668 31.19796185 349.37119668 31.19796185 350.52322769 32.27123547 C350.95805341 37.65959909 350.15369859 40.77340266 347.41775894 45.39623547 C346.76355972 46.51514172 346.1093605 47.63404797 345.43533707 48.78686047 C344.73553175 49.94835765 344.03566152 51.10981572 343.33572769 52.27123547 C342.65406899 53.43191949 341.97371887 54.59337307 341.29471207 55.75561047 C338.59682394 60.32491173 335.91232053 64.85690325 332.76150894 69.13061047 C330.40036474 72.44362956 328.62418176 75.85726951 326.89822769 79.52123547 C323.8215143 85.85272845 320.49384653 91.99533859 316.96072769 98.08373547 C316.5261525 98.83493664 316.0915773 99.58613781 315.64383316 100.36010265 C313.22648789 104.49307034 310.71746502 108.55197156 308.12869644 112.57982922 C304.36686743 118.45707968 300.86576736 124.46685962 297.39822769 130.52123547 C296.74789566 131.65238781 296.09756363 132.78354015 295.42752457 133.94896984 C291.2596991 141.20438379 287.13256855 148.48254903 283.02322769 155.77123547 C263.2421092 190.84333632 263.2421092 190.84333632 256.96072769 200.27123547 C251.96964966 207.82402211 247.85168924 215.83960748 243.60281754 223.82592297 C240.18049194 230.24313041 236.67232971 236.49100735 232.76932144 242.62670422 C229.39301501 248.01036947 226.30485536 253.56983287 223.14822769 259.08373547 C218.90763862 266.48788876 214.62502332 273.83545201 210.02322769 281.02123547 C206.429728 286.6425574 203.42112671 292.38712626 200.51541519 298.40014172 C198.01634159 303.39427112 195.13910177 308.16886406 192.27322769 312.95873547 C191.49326431 314.27019543 191.49326431 314.27019543 190.6975441 315.60814953 C190.20173843 316.42896008 189.70593277 317.24977062 189.19510269 318.09545422 C188.75263199 318.82852795 188.31016129 319.56160168 187.85428238 320.31688976 C184.64549697 325.02824838 184.64549697 325.02824838 181.60835648 325.68583202 C180.52630684 325.71203373 180.52630684 325.71203373 179.42239761 325.73876476 C178.60111877 325.7643597 177.77983994 325.78995464 176.93367386 325.81632519 C176.04928131 325.82593777 175.16488876 325.83555035 174.25369644 325.84545422 C173.33993744 325.86018276 172.42617844 325.87491131 171.48472977 325.89008617 C169.55062603 325.91404115 167.61640059 325.92945949 165.68216324 325.93700695 C162.73057616 325.95859032 159.78421512 326.03874434 156.83377457 326.12084484 C154.95294255 326.13684276 153.07207671 326.14932666 151.19119644 326.15795422 C150.31287659 326.18983334 149.43455673 326.22171246 148.52962112 326.25455761 C144.88602039 326.21473792 142.49475455 326.14722347 139.72005081 323.64538097 C138.14442745 321.59127579 136.81413052 319.51377969 135.52322769 317.27123547 C134.87023697 316.23627941 134.21724625 315.20132336 133.54446793 314.135005 C132.97929459 313.15128918 132.41412125 312.16757336 131.83182144 311.15404797 C131.19695816 310.05189953 130.56209488 308.94975109 129.90799332 307.81420422 C129.26539566 306.68627453 128.622798 305.55834484 127.96072769 304.39623547 C126.99103043 302.7159425 126.99103043 302.7159425 126.00174332 301.00170422 C122.69312315 295.23265542 119.56756506 289.42708091 116.63919449 283.45727062 C115.0274241 280.30002012 113.14803194 277.36077123 111.21072769 274.39623547 C105.6114405 265.64228138 100.51357473 256.60591711 95.40872574 247.55883312 C92.13481122 241.77441343 88.80018544 236.05286492 85.29275894 230.40795422 C82.42194943 225.78272228 79.77943982 221.13157037 77.33572769 216.27123547 C73.52575841 208.89620546 69.25071163 201.88873241 64.82889175 194.86767101 C59.32248784 186.06904902 54.18984715 177.0715863 49.07962418 168.03954601 C46.24677534 163.03514542 43.40854582 158.0434288 40.42557144 153.12670422 C37.83882349 148.85394318 35.44625516 144.49518786 33.0725441 140.10131359 C30.38145063 135.18559417 27.54337648 130.35632795 24.71072769 125.52123547 C23.78671158 123.93991833 23.78671158 123.93991833 22.84402847 122.32665539 C19.56459226 116.72360502 16.25899685 111.13832912 12.89822769 105.58373547 C9.22561387 99.50976372 5.67488584 93.36848356 2.14822769 87.20873547 C1.63566422 86.31517345 1.12310074 85.42161144 0.59500504 84.50097179 C-1.89072424 80.14330922 -4.23292878 75.75892253 -6.47677231 71.27123547 C-7.81193474 68.98589608 -9.16273492 66.71860423 -10.53927231 64.45873547 C-11.33101661 63.13977165 -12.12267998 61.82075925 -12.91427231 60.50170422 C-14.6804178 57.57119567 -16.47770912 54.66213501 -18.28927231 51.75951672 C-19.20621312 50.26359097 -20.12288585 48.76750087 -21.03927231 47.27123547 C-21.48085678 46.57796154 -21.92244125 45.88468761 -22.37740707 45.17040539 C-25.07370199 40.72695852 -26.17125301 37.61045407 -25.47677231 32.27123547 C-24.45333481 29.87279797 -24.45333481 29.87279797 -23.10177231 27.89623547 C-22.66091293 27.22850109 -22.22005356 26.56076672 -21.76583481 25.87279797 C-20.47677231 24.27123547 -20.47677231 24.27123547 -18.47677231 23.27123547 C-17.79378262 21.6111911 -17.13197401 19.9424425 -16.47677231 18.27123547 C-15.04724351 15.50224395 -13.51266328 12.79485291 -11.97677231 10.08373547 C-11.57329575 9.35992687 -11.16981918 8.63611828 -10.75411606 7.89037609 C-10.36353012 7.197505 -9.97294418 6.5046339 -9.57052231 5.79076672 C-9.03975082 4.84874401 -9.03975082 4.84874401 -8.49825668 3.88769054 C-6.06067503 0.03032245 -4.37051656 0.01770779 0 0 Z M5.52322769 9.27123547 C9.34857652 16.92193313 13.0866846 24.06229452 17.64822769 31.20873547 C22.28238577 38.58239004 26.76865295 46.01976254 31.08572769 53.58373547 C31.57379898 54.43636974 32.06187027 55.28900402 32.5647316 56.1674757 C35.04241627 60.53388722 37.37406139 64.93729911 39.59085464 69.4409132 C41.0295943 72.2652733 42.67813225 74.94569536 44.33572769 77.64623547 C47.34977934 82.59215381 50.28568096 87.57688356 53.16385269 92.60326672 C53.8099147 93.73135754 54.45597672 94.85944836 55.12161636 96.02172375 C56.39865228 98.25641755 57.67243449 100.49297496 58.94241714 102.73168468 C63.17734204 110.13533649 67.70783556 117.23651385 72.52322769 124.27123547 C77.36948688 122.65581574 79.18869224 118.54245868 81.48733902 114.24145031 C83.36923136 109.92325893 83.89369253 107.07878742 82.20291519 102.61498547 C80.16238909 98.4173692 77.68801604 94.51125805 75.09744644 90.63402843 C73.61036012 88.40201518 72.21037616 86.14017791 70.83572769 83.83764172 C69.07130829 80.88487268 67.28053997 77.95191782 65.46072769 75.03295422 C61.57323422 68.77021286 57.85161857 62.40986624 54.11380386 56.05712414 C53.60309341 55.18934338 53.09238297 54.32156261 52.56619644 53.42748547 C52.07039078 52.57541515 51.57458511 51.72334484 51.06375504 50.84545422 C50.00382591 49.07431433 48.90236166 47.32758818 47.7678566 45.60326672 C47.20888687 44.7408839 46.64991714 43.87850109 46.07400894 42.98998547 C45.5613649 42.22621593 45.04872086 41.4624464 44.52054214 40.67553234 C43.52322769 38.27123547 43.52322769 38.27123547 44.52322769 32.27123547 C84.45322769 32.27123547 124.38322769 32.27123547 165.52322769 32.27123547 C170.47322769 40.85123547 175.42322769 49.43123547 180.52322769 58.27123547 C183.15799939 62.68533351 185.79412716 67.09645849 188.45193863 71.49633312 C194.08710218 80.83262277 199.53863948 90.19382881 204.52322769 99.89623547 C208.92726897 108.45823817 213.99242999 116.39867448 219.52322769 124.27123547 C222.16646967 121.04636507 224.61341576 117.80046533 226.83572769 114.27123547 C227.63430191 113.03373547 227.63430191 113.03373547 228.44900894 111.77123547 C229.8053075 108.61475882 229.65899222 107.50196063 228.52322769 104.27123547 C227.18892195 101.76832207 225.81509973 99.37262924 224.33572769 96.95873547 C223.4196959 95.43179179 222.50437164 93.90442349 221.58963394 92.37670422 C221.09479507 91.55476574 220.59995621 90.73282726 220.09012222 89.88598156 C214.8071698 81.07008558 209.66861124 72.16784736 204.52322769 63.27123547 C203.53661148 61.57088146 203.53661148 61.57088146 202.53006363 59.83617687 C200.55467959 56.42709838 198.60055982 53.00607062 196.64822769 49.58373547 C196.03495621 48.52670422 195.42168472 47.46967297 194.78982925 46.38061047 C194.23005386 45.39189953 193.67027847 44.40318859 193.09354019 43.38451672 C192.5961232 42.51609142 192.09870621 41.64766613 191.58621597 40.75292492 C190.421324 38.03332756 190.23193296 36.19916185 190.52322769 33.27123547 C192.28530175 31.50916141 194.79532817 32.12735826 197.18620682 32.11301708 C198.41604797 32.10322826 199.64588913 32.09343945 200.9129982 32.083354 C202.28836402 32.07744904 203.66373025 32.07163865 205.03909683 32.0659132 C206.47765259 32.05634002 207.9162055 32.04633027 209.3547554 32.03591442 C213.27190848 32.00879858 217.18907369 31.98782531 221.10626912 31.96791244 C225.19559028 31.94609393 229.28487377 31.91868508 233.37416458 31.89185619 C241.12312435 31.84187321 248.87210496 31.79695525 256.62110561 31.75383383 C265.44081653 31.70450926 274.26048967 31.64957346 283.08016407 31.59415424 C301.22781689 31.48024817 319.37550533 31.37342801 337.52322769 31.27123547 C336.27456356 28.91635189 335.02433294 26.56232175 333.77322769 24.20873547 C333.42518082 23.55195812 333.07713394 22.89518078 332.71854019 22.21850109 C332.37049332 21.56430187 332.02244644 20.91010265 331.66385269 20.23607922 C331.34964371 19.64431896 331.03543472 19.05255871 330.71170425 18.44286633 C329.02541621 15.36161486 327.26591725 12.32094219 325.52322769 9.27123547 C219.92322769 9.27123547 114.32322769 9.27123547 5.52322769 9.27123547 Z M-3.47677231 15.27123547 C-4.00786606 16.20064953 -4.53895981 17.13006359 -5.08614731 18.08764172 C-8.54968898 24.14883963 -12.01323064 30.21003755 -15.47677231 36.27123547 C-14.83610825 37.33600109 -14.19544418 38.40076672 -13.53536606 39.49779797 C-8.79177512 47.4390569 -4.27477161 55.35366282 -0.34005356 63.73217297 C1.7822635 67.76324058 4.20258394 71.52661376 6.66995621 75.35326672 C9.63243762 80.01768218 12.3851217 84.79942801 15.14822769 89.58373547 C19.28896724 96.72630234 23.45471986 103.85118986 27.68533707 110.9409132 C32.02245765 118.21457238 36.25477986 125.49958259 40.14822769 133.02123547 C43.9614333 140.38550507 48.20204089 147.42199964 52.56619644 154.47045422 C60.24866229 166.89013899 67.61117685 179.50268276 74.64456558 192.3002882 C80.40223751 202.73931309 86.48694411 212.99183644 92.52322769 223.27123547 C93.4569449 224.86491314 94.39054875 226.45865724 95.32400894 228.05248547 C98.83701064 234.04379642 102.36662804 240.02337435 105.95853043 245.96776867 C111.40448757 254.98302759 116.60107629 264.130652 121.67166519 273.36205578 C125.00074369 279.40540715 128.49407649 285.3429165 132.02322769 291.27123547 C135.95977535 297.88390484 139.83030526 304.51893937 143.52322769 311.27123547 C146.70754623 308.33611312 148.79726138 305.39972767 150.92166519 301.63451672 C151.5588649 300.51222668 152.19606461 299.38993664 152.85257339 298.23363781 C153.53455725 297.01705924 154.21643952 295.80042371 154.89822769 294.58373547 C155.6101479 293.32511577 156.32263961 292.06681919 157.03567886 290.80883312 C160.48271084 284.71802596 163.89594334 278.60849177 167.30057144 272.49389172 C172.81784602 262.58510167 178.36692305 252.73512733 184.33426285 243.08959484 C193.74727926 227.85505345 202.85455149 212.46595539 210.52322769 196.27123547 C203.58108447 194.72102885 196.29139482 193.58936928 189.52322769 196.27123547 C183.58299563 201.87247618 180.39655797 209.84047033 177.01492691 217.14135265 C174.91568432 221.54598276 172.43979735 225.67415512 169.89822769 229.83373547 C169.13246423 231.12508178 168.36927372 232.41795874 167.60916519 233.71264172 C167.25749283 234.31133068 166.90582047 234.91001965 166.54349136 235.5268507 C163.88999951 240.06362967 161.31953202 244.63009449 158.83182144 249.25951672 C158.36195816 250.13027843 157.89209488 251.00104015 157.40799332 251.89818859 C156.43410982 253.70532733 155.46544669 255.51528808 154.50174332 257.32787609 C153.79888199 258.6243507 153.79888199 258.6243507 153.08182144 259.94701672 C152.66215103 260.72988049 152.24248062 261.51274426 151.81009293 262.31933117 C150.52322769 264.27123547 150.52322769 264.27123547 147.52322769 266.27123547 C145.05643082 266.23461437 145.05643082 266.23461437 142.52322769 265.27123547 C140.69314957 262.95238781 140.69314957 262.95238781 138.99197769 259.85717297 C138.35276382 258.71482189 137.71354996 257.57247082 137.05496597 256.39550304 C136.37749616 255.14586844 135.70025543 253.89610963 135.02322769 252.64623547 C134.31509927 251.36885982 133.60528272 250.09241864 132.89383316 248.81688976 C131.44911795 246.2217123 130.01318919 243.62198878 128.58475113 241.0178175 C125.65367416 235.67952069 122.65041212 230.38226727 119.64822769 225.08373547 C119.11721451 224.14280041 118.58620132 223.20186535 118.03909683 222.23241711 C111.83319737 211.24516079 105.40641818 200.39577603 98.90921402 189.57885265 C97.87154732 187.85096453 96.83490276 186.12246209 95.79935074 184.39330578 C93.62014916 180.75499903 91.43629927 177.12117718 89.20682144 173.51342297 C88.5687355 172.46412609 87.93064957 171.41482922 87.27322769 170.33373547 C86.73182144 169.45846203 86.19041519 168.58318859 85.63260269 167.68139172 C84.33658305 164.8657434 84.22316065 163.34805068 84.52322769 160.27123547 C85.79959488 157.81835461 85.79959488 157.81835461 87.57010269 155.24389172 C91.58714401 149.21328321 95.18812652 143.00324896 98.77322769 136.70873547 C103.1803069 129.00846618 107.64231796 121.362942 112.33572769 113.83373547 C116.54302852 107.06926798 120.30099931 100.13652739 123.94827652 93.05639172 C127.01503585 87.13420324 130.35042401 81.46291666 133.92947769 75.83764172 C135.26690995 73.68398242 136.41083403 71.54398119 137.52322769 69.27123547 C130.89918963 67.99360201 124.03143569 67.07988051 117.52322769 69.27123547 C112.3693 73.48845297 109.87430952 80.21427344 107.09256363 86.10424328 C104.51069251 91.31457809 101.46291986 96.24770869 98.45044327 101.21630383 C96.71841308 104.08448432 95.01905364 106.97157554 93.31619644 109.85717297 C91.00887251 113.75974783 88.69939781 117.66101905 86.38650894 121.56029797 C85.49442463 123.06801745 84.60248432 124.57582215 83.71072769 126.08373547 C83.32062515 126.74010998 82.93052261 127.39648449 82.52859879 128.07274914 C80.86257634 130.89645894 79.34157451 133.67393091 77.99197769 136.66576672 C77.50729019 137.5255714 77.02260269 138.38537609 76.52322769 139.27123547 C72.83572769 140.14623547 72.83572769 140.14623547 69.52322769 140.27123547 C69.24865738 139.54323742 68.97408707 138.81523937 68.69119644 138.06518078 C67.5781406 135.40259486 66.31456858 133.04263669 64.83572769 130.56811047 C64.3066481 129.67833508 63.77756851 128.78855968 63.23245621 127.8718214 C62.6684108 126.93112804 62.10436539 125.99043468 61.52322769 125.02123547 C60.34466262 123.04217578 59.16627917 121.06300791 57.98807144 119.08373547 C57.40267593 118.1027589 56.81728043 117.12178234 56.21414566 116.11107922 C53.40327639 111.39031235 50.62625834 106.64977159 47.84817886 101.9096632 C45.7151885 98.27641245 43.54519518 94.67121293 41.33572769 91.08373547 C38.36203435 86.17504731 35.89397348 81.03772846 33.42947769 75.86107922 C32.05274223 73.13092335 30.46919491 70.63485219 28.74979019 68.10717297 C24.98540023 62.56879376 21.70885252 56.77597006 18.39822769 50.95873547 C13.56443552 42.52559215 8.7004261 34.11341164 3.71072769 25.77123547 C3.21363297 24.93552013 2.71653824 24.0998048 2.20438004 23.23876476 C1.74627945 22.47604259 1.28817886 21.71332043 0.81619644 20.92748547 C0.41940689 20.26555187 0.02261734 19.60361828 -0.38619614 18.92162609 C-1.50353137 17.11107056 -1.50353137 17.11107056 -3.47677231 15.27123547 Z M56.52322769 40.27123547 C57.67337374 42.66313211 58.84961086 45.03213711 60.07764053 47.38535595 C61.52322769 50.27123547 61.52322769 50.27123547 62.59601212 53.11915112 C63.93215185 56.17356192 65.02145443 58.04867333 67.52322769 60.27123547 C73.15676403 61.7658564 78.65953427 61.61442822 84.45291519 61.48607922 C86.12910319 61.47797852 87.80530541 61.47244977 89.48151016 61.46937084 C92.99137624 61.45071746 96.49817337 61.39433409 100.00711441 61.31249523 C104.49001792 61.21189056 108.96587902 61.21513691 113.44954109 61.24821663 C116.91152154 61.26043723 120.37071086 61.21201296 123.83200836 61.14620686 C125.4831414 61.12296865 127.13468094 61.11944746 128.78588867 61.13657475 C133.99209885 61.1723649 138.57384474 60.98199663 143.52322769 59.27123547 C148.56507876 54.10295222 150.92948173 47.94151761 153.52322769 41.27123547 C131.17323914 40.25237081 108.82888149 40.18257388 86.46072769 40.20873547 C85.35515015 40.21001949 85.35515015 40.21001949 84.2272377 40.21132946 C74.99254411 40.22284041 65.75788656 40.24308705 56.52322769 40.27123547 Z M204.52322769 40.27123547 C203.18677949 44.28058006 204.27561256 45.80583533 206.02823353 49.49965954 C209.57270956 56.45600328 209.57270956 56.45600328 215.48860931 61.23278332 C221.04777841 62.65493166 226.72579491 62.19823566 232.40213394 61.89623547 C234.22377883 61.86193465 236.04558418 61.83536652 237.86745071 61.81615734 C242.63708636 61.74595348 247.39768892 61.57458619 252.16366959 61.38024426 C257.03287196 61.19859631 261.90364932 61.10862957 266.77518082 61.01342297 C272.23946121 60.90317033 277.70205206 60.78345099 283.16423416 60.59398937 C283.98970749 60.56620403 284.81518082 60.53841869 285.66566849 60.50979137 C287.21262753 60.45618993 288.75944772 60.39836045 290.30606461 60.33565807 C292.0442315 60.27610072 293.78404373 60.26801673 295.52322769 60.27123547 C296.52322769 61.27123547 296.52322769 61.27123547 296.85525894 64.39623547 C296.46372731 68.96563995 294.81363045 71.65542015 292.21072769 75.27123547 C289.48118904 79.17182021 287.20939104 82.80525477 285.41946793 87.24877453 C283.36470588 91.88556253 280.71678622 96.24285453 278.21072769 100.64623547 C277.65449722 101.63623547 277.09826675 102.62623547 276.52518082 103.64623547 C273.56020372 108.87895407 270.45445632 113.93018475 267.07522964 118.9030714 C263.92623103 123.70805591 261.12516477 128.72390806 258.27322769 133.70873547 C257.62080093 134.84367443 256.96837418 135.9786134 256.29617691 137.14794445 C251.92981387 144.76140716 247.62184902 152.40565019 243.40506363 160.10302258 C240.62101721 165.17344594 240.62101721 165.17344594 239.52322769 166.27123547 C237.5574498 166.42522856 235.58621319 166.50977643 233.61526871 166.56786633 C232.33643311 166.60690578 231.0575975 166.64594524 229.74000931 166.68616772 C228.31489332 166.72398405 226.88976782 166.76144313 225.46463394 166.79857922 C223.98152417 166.84027764 222.49841567 166.88202155 221.01530838 166.9238081 C203.68886984 167.39538224 186.35785223 167.60161075 169.02658463 167.80346203 C164.66020408 167.85497907 160.29386706 167.90996376 155.92752457 167.96459484 C147.45946307 168.07006589 138.9913636 168.17191857 130.52322769 168.27123547 C131.69669075 170.70804386 132.89452806 173.12174021 134.15074539 175.51732922 C135.52322769 178.27123547 135.52322769 178.27123547 136.31306839 180.68139172 C137.3862389 183.37546243 138.14778247 184.56682527 140.52322769 186.27123547 C146.72442835 187.48595122 152.87003789 187.3424506 159.16775894 187.27123547 C161.02151058 187.27875528 162.87525102 187.28979035 164.72896194 187.30419445 C169.60049537 187.33261836 174.47071422 187.31334478 179.34219742 187.28411388 C184.31603958 187.262716 189.2896442 187.28645706 194.26346207 187.30639172 C204.01701384 187.33883435 213.7697725 187.32088619 223.52322769 187.27123547 C223.65341195 192.63592802 223.37809172 195.30491961 220.33572769 199.77123547 C219.5967015 200.89710235 218.86272984 202.02629601 218.13260269 203.15795422 C217.72074722 203.79523449 217.30889175 204.43251476 216.88455582 205.08910656 C214.13363429 209.49867196 211.62749004 214.05156519 209.08572769 218.58373547 C208.23736343 220.09109264 208.23736343 220.09109264 207.3718605 221.62890148 C204.96760574 225.90432682 202.57109024 230.18404033 200.17947769 234.46654797 C189.47974608 253.6068231 178.34703537 272.49228773 166.75760269 291.10717297 C161.63824309 299.43286832 157.10412771 308.17316129 153.52322769 317.27123547 C166.81410573 319.2930232 166.81410573 319.2930232 179.33377457 316.15355968 C182.32791489 312.89232094 183.81205622 308.81050472 185.43289566 304.74584484 C187.57742275 299.87864229 190.50706904 295.42880096 193.27322769 290.89623547 C197.13329462 284.41269448 200.886887 277.88251656 204.52322769 271.27123547 C211.23829642 259.12815285 217.95652471 247.01288621 225.27225113 235.21947765 C234.32050189 220.57585676 242.70748378 205.5202922 251.14822769 190.52123547 C258.74005499 177.03592148 266.51698121 163.65097381 274.71072769 150.52123547 C279.19774498 143.29477604 283.24934956 135.83360577 287.35330582 128.38598156 C296.31628519 112.18453596 305.7194363 96.192855 315.27322769 80.33373547 C315.79384781 79.46893566 315.79384781 79.46893566 316.3249855 78.58666515 C316.67013199 78.01335461 317.01527847 77.44004406 317.37088394 76.84936047 C323.80524154 66.15842785 330.13572398 55.53767059 335.52322769 44.27123547 C336.18322769 42.95123547 336.84322769 41.63123547 337.52322769 40.27123547 C293.63322769 40.27123547 249.74322769 40.27123547 204.52322769 40.27123547 Z M161.52322769 47.27123547 C159.98705686 49.84649261 158.46934568 52.42990946 156.96072769 55.02123547 C156.52309097 55.75084484 156.08545425 56.48045422 155.63455582 57.23217297 C155.22527847 57.94115734 154.81600113 58.65014172 154.39432144 59.38061047 C154.01203384 60.0299757 153.62974625 60.67934093 153.23587418 61.3483839 C152.33767705 63.77188529 152.63788336 64.87275172 153.52322769 67.27123547 C154.71112639 69.49677359 155.92784647 71.66481646 157.21072769 73.83373547 C157.94988477 75.10405959 158.68815969 76.3748974 159.42557144 77.64623547 C159.78763687 78.26885265 160.1497023 78.89146984 160.52273941 79.53295422 C161.8148347 81.77788307 163.04808053 84.0516703 164.27322769 86.33373547 C171.60348255 99.85264811 179.14357551 113.36859031 187.52322769 126.27123547 C187.95538589 126.97466076 188.3875441 127.67808605 188.832798 128.40282726 C190.36075542 130.46025636 190.36075542 130.46025636 192.69974136 130.72533703 C193.52192154 130.70438976 194.34410172 130.6834425 195.19119644 130.66186047 C196.53021011 130.64252453 196.53021011 130.64252453 197.89627457 130.62279797 C198.8250441 130.58928234 199.75381363 130.55576672 200.71072769 130.52123547 C201.65109879 130.50318859 202.59146988 130.48514172 203.56033707 130.46654797 C205.88232658 130.41940097 208.20226459 130.35361777 210.52322769 130.27123547 C206.46567915 121.26045613 202.30779846 112.57549916 196.98025894 104.23217297 C193.52121 98.74951339 190.36641115 93.08457624 187.14822769 87.45873547 C182.13640759 78.719653 177.02326542 70.07760079 171.61307144 61.57982922 C169.20715365 57.77083414 166.92292246 53.90035513 164.67947769 49.99389172 C163.62481344 48.11643827 163.62481344 48.11643827 161.52322769 47.27123547 Z M73.52322769 69.27123547 C75.64501634 74.5757071 78.21219527 79.40085842 80.96072769 84.39623547 C81.45121597 85.3024464 81.94170425 86.20865734 82.44705582 87.14232922 C82.92465347 88.0124464 83.40225113 88.88256359 83.89432144 89.77904797 C84.5429213 90.96458263 84.5429213 90.96458263 85.20462418 92.1740675 C86.46824913 94.18379502 87.77612026 95.67645307 89.52322769 97.27123547 C90.00791519 96.48361828 90.49260269 95.69600109 90.99197769 94.88451672 C91.66229019 93.7952589 92.33260269 92.70600109 93.02322769 91.58373547 C93.37908951 91.0051881 93.73495132 90.42664074 94.10159683 89.83056164 C95.99868889 86.74669473 97.89762382 83.6639931 99.80057144 80.58373547 C100.162798 79.9968092 100.52502457 79.40988293 100.89822769 78.80517101 C101.91722985 77.15420957 102.93700838 75.50372738 103.95682144 73.85326672 C105.49142729 71.40280408 105.49142729 71.40280408 106.52322769 69.27123547 C95.63322769 69.27123547 84.74322769 69.27123547 73.52322769 69.27123547 Z M219.52322769 69.27123547 C221.08334343 73.17152481 222.61003121 76.257943 224.78104019 79.79076672 C225.71883316 81.32313976 225.71883316 81.32313976 226.67557144 82.88646984 C227.326548 83.9415675 227.97752457 84.99666515 228.64822769 86.08373547 C229.6362941 87.69538586 229.6362941 87.69538586 230.64432144 89.33959484 C232.26720518 91.98560093 233.89360892 94.62937395 235.52322769 97.27123547 C237.97548588 94.29864382 240.16493929 91.39286069 242.03104019 88.02123547 C242.460298 87.24779797 242.88955582 86.47436047 243.33182144 85.67748547 C243.7662355 84.88342297 244.20064957 84.08936047 244.64822769 83.27123547 C245.09037613 82.47717297 245.53252457 81.68311047 245.98807144 80.86498547 C248.10929815 77.01986152 249.88151772 73.37551039 251.52322769 69.27123547 C240.96322769 69.27123547 230.40322769 69.27123547 219.52322769 69.27123547 Z M260.04275894 73.41186047 C259.16934539 75.01380033 258.32670711 76.63310135 257.52322769 78.27123547 C256.8799855 79.33986828 256.23674332 80.40850109 255.57400894 81.50951672 C255.00037613 82.5240089 254.42674332 83.53850109 253.83572769 84.58373547 C253.34109024 85.45578625 253.34109024 85.45578625 252.83646011 86.34545422 C250.86905527 89.8294097 248.93883143 93.33278176 247.02322769 96.84545422 C246.58518814 97.64700939 246.14714859 98.44856457 245.69583511 99.27440929 C244.78459215 100.94722957 243.87854722 102.62289127 242.97757339 104.30126476 C240.41197358 109.03037613 237.70641871 113.59251788 234.75369644 118.09154797 C234.13325455 119.06027843 233.51281265 120.0290089 232.87356949 121.02709484 C231.66461295 122.90170326 230.42353519 124.75608352 229.14749527 126.58568859 C227.49259959 129.18432142 226.27399867 131.28019139 225.52322769 134.27123547 C226.49101507 138.10847608 228.31144541 141.02482555 230.52322769 144.27123547 C231.42671216 145.80843073 232.3238159 147.34941907 233.21072769 148.89623547 C234.32448975 150.82603873 234.32448975 150.82603873 235.52322769 152.27123547 C236.18322769 152.27123547 236.84322769 152.27123547 237.52322769 152.27123547 C242.63057528 143.27426436 247.64842258 134.25169245 252.40604019 125.06420422 C254.06424548 121.98894131 255.90951186 119.06404567 257.80057144 116.12670422 C261.7377365 110.00367956 265.35586823 103.71891907 268.96072769 97.39623547 C273.59015526 89.31843833 278.25293489 81.28191838 283.20291519 73.39623547 C284.53343817 71.32762497 284.53343817 71.32762497 285.52322769 69.27123547 C281.9829841 69.0084795 278.44524636 68.84963217 274.89822769 68.70873547 C273.39969254 68.59562023 273.39969254 68.59562023 271.87088394 68.48021984 C266.22302406 68.31190614 263.31443479 68.54913963 260.04275894 73.41186047 Z M145.52322769 74.27123547 C145.19226089 74.86323742 144.8612941 75.45523937 144.520298 76.06518078 C138.06336295 87.59700905 131.54654532 99.07685723 124.65896988 110.35814953 C121.65249077 115.30237348 118.82974955 120.32030071 116.07864761 125.4108839 C113.41196635 130.31479815 110.65100084 135.16529218 107.89822769 140.02123547 C107.33877457 141.0099464 106.77932144 141.99865734 106.20291519 143.01732922 C103.32086389 148.10850003 100.42582872 153.19168367 97.52322769 158.27123547 C104.78322769 158.27123547 112.04322769 158.27123547 119.52322769 158.27123547 C120.74010269 155.91998547 121.95697769 153.56873547 123.21072769 151.14623547 C130.20299786 137.82523382 137.99590269 124.94339867 145.89822769 112.14623547 C146.502798 111.16396984 147.10736832 110.18170422 147.73025894 109.16967297 C149.00746319 107.10499855 150.29799028 105.04854047 151.59744644 102.99779797 C152.25357925 101.93303234 152.90971207 100.86826672 153.58572769 99.77123547 C154.17482925 98.83279797 154.76393082 97.89436047 155.37088394 96.92748547 C156.79134727 93.65319712 156.74108425 92.60924718 155.52322769 89.27123547 C154.14672001 86.58677202 152.60900632 84.0239656 151.02322769 81.45873547 C150.6068605 80.76586437 150.19049332 80.07299328 149.76150894 79.35912609 C148.71602565 77.64202975 147.62366845 75.95364009 146.52322769 74.27123547 C146.19322769 74.27123547 145.86322769 74.27123547 145.52322769 74.27123547 Z M161.52322769 103.27123547 C159.39660311 107.02031638 157.27221087 110.77065757 155.14822769 114.52123547 C154.54494644 115.58471203 153.94166519 116.64818859 153.32010269 117.74389172 C152.74002457 118.7686964 152.15994644 119.79350109 151.56229019 120.84936047 C151.02813492 121.79198742 150.49397964 122.73461437 149.94363785 123.70580578 C148.74834287 125.86465068 147.62679839 128.06409407 146.52322769 130.27123547 C157.08322769 130.27123547 167.64322769 130.27123547 178.52322769 130.27123547 C174.93154272 123.68647968 171.33641759 117.11333696 167.64822769 110.58373547 C167.24604019 109.87023937 166.84385269 109.15674328 166.42947769 108.42162609 C165.461404 106.70444776 164.49241998 104.98778269 163.52322769 103.27123547 C162.86322769 103.27123547 162.20322769 103.27123547 161.52322769 103.27123547 Z M130.52322769 156.27123547 C130.19322769 156.93123547 129.86322769 157.59123547 129.52322769 158.27123547 C161.86322769 158.27123547 194.20322769 158.27123547 227.52322769 158.27123547 C222.59530968 149.22708862 222.59530968 149.22708862 217.52322769 140.27123547 C207.65768711 139.89931292 197.79383019 139.61565599 187.92268944 139.44224072 C183.33778651 139.3589687 178.75770049 139.24623891 174.17557144 139.06420422 C169.74657944 138.88936956 165.32219212 138.79451288 160.89001465 138.75319958 C159.20614292 138.72379741 157.52250411 138.66636019 155.84061432 138.57955456 C141.10678704 137.84988149 136.41439564 143.1229008 130.52322769 156.27123547 Z M98.52322769 168.27123547 C100.21315942 173.44814232 100.21315942 173.44814232 102.58963394 178.04857922 C103.18735611 179.05428967 103.18735611 179.05428967 103.79715347 180.0803175 C104.22238297 180.78269543 104.64761246 181.48507336 105.08572769 182.20873547 C105.52900406 182.9523634 105.97228043 183.69599133 106.42898941 184.46215343 C108.56987017 188.04807155 110.73357167 191.61997898 112.90213394 195.18920422 C116.58669304 201.26419848 120.15966182 207.35300929 123.46072769 213.64623547 C133.40756989 232.64323426 133.40756989 232.64323426 145.52322769 250.27123547 C146.18322769 250.27123547 146.84322769 250.27123547 147.52322769 250.27123547 C149.19913261 247.90472675 150.71895585 245.56233629 152.21072769 243.08373547 C152.85364761 242.07343273 152.85364761 242.07343273 153.50955582 241.04271984 C153.90980972 240.38207531 154.31006363 239.72143078 154.72244644 239.04076672 C155.09200455 238.43853283 155.46156265 237.83629894 155.84231949 237.21581554 C156.78855534 234.51349623 156.35786218 232.99556017 155.52322769 230.27123547 C154.22789177 227.59654347 154.22789177 227.59654347 152.57400894 224.88451672 C151.67198746 223.35214367 151.67198746 223.35214367 150.75174332 221.78881359 C150.11945816 220.73113781 149.487173 219.67346203 148.83572769 218.58373547 C148.22277847 217.54539562 147.60982925 216.50705578 146.97830582 215.43725109 C145.16875922 212.37656517 143.34842604 209.32260946 141.52322769 206.27123547 C140.98222427 205.36655529 140.44122086 204.46187511 139.88382339 203.52978039 C137.67140949 199.83681306 135.45160334 196.14860012 133.21463394 192.47045422 C128.39149958 184.52627304 123.86353803 176.49012101 119.52322769 168.27123547 C112.59322769 168.27123547 105.66322769 168.27123547 98.52322769 168.27123547 Z M146.52322769 196.27123547 C149.39923179 201.31702648 149.39923179 201.31702648 152.28494644 206.35717297 C153.71715263 208.85533651 155.13597742 211.36024019 156.54275894 213.87279797 C157.15506363 214.95303234 157.76736832 216.03326672 158.39822769 217.14623547 C158.95252457 218.13365734 159.50682144 219.12107922 160.07791519 220.13842297 C160.55486832 220.84225109 161.03182144 221.54607922 161.52322769 222.27123547 C162.18322769 222.27123547 162.84322769 222.27123547 163.52322769 222.27123547 C165.12883082 220.0050513 165.12883082 220.0050513 166.74588394 217.09154797 C167.36656754 216.0177589 167.98725113 214.94396984 168.62674332 213.83764172 C169.59644058 212.13414562 169.59644058 212.13414562 170.58572769 210.39623547 C171.23605972 209.26830578 171.88639175 208.14037609 172.55643082 206.97826672 C175.64491452 201.68179965 175.64491452 201.68179965 178.52322769 196.27123547 C167.96322769 196.27123547 157.40322769 196.27123547 146.52322769 196.27123547 Z " fill="#E0E0E0" transform="translate(87.47677230834961,94.72876453399658)"/>
<path d="M0 0 C1 4 1 4 1 6 C-0.65 6.66 -2.3 7.32 -4 8 C-2.68 5.36 -1.36 2.72 0 0 Z " fill="#AFAFAF" transform="translate(355,193)"/>
</svg>
